Patient4_TMGait_0pt3_01_left_28_EMG.mot
version=1
nRows=16
nColumns=33
inDegrees=no
endheader
time	1LAddLong	2LGlutMax	3LGlutMed	4LIliopsoas	5LSemiMemb	6LBicFemLong	7LRecFem	8LVastMed	9LVastLat	10LGasMed	11LTibAnt	12lTibPost	13LPeroneusLong	14LSol	15LExtDigLong	16LFlexDigLong	17RAddLong	18RGlutMax	19RGlutMed	20RIliopsoas	21RSemiMemb	22RBicFemLong	23RRecFem	24RVastMed	25RVastLat	26RGasMed	27RTibAnt	28RTibPost	29RPeroneusLong	30RSol	31RExtDigLong	32RFlexDigLong
54.15	-0.001678	-0.084839	0.060883	0.002747	0.013123	-0.067444	0.062561	0.005341	-0.066833	-0.009918	0.045929	-0.006104	0.069275	-0.06424	0.091248	-0.028534	0.02182	-0.004425	-0.21652	-0.17899	0.19318	0.016479	0.001831	-0.091858	-0.058441	-0.005646	0.11688	-0.011902	0.014648	0.03067	-0.006256	-0.010376
54.151	-0.00061	-0.061493	0.05661	0.013428	0.025482	-0.024872	0.073395	0.005798	-0.041962	-0.035553	0.069885	0.00473	-0.15808	-0.025482	-0.094147	0.002747	0.049896	-0.04776	-0.31937	-0.063477	0.13138	0.043793	-0.005188	-0.069733	-0.091095	0.00351	-0.31036	-0.004425	0.044403	0.12573	-0.000916	-0.016327
54.152	-0.001984	-0.088959	0.025024	-0.002136	0.017395	0.015259	0.071564	0.004425	0.009613	-0.029449	0.062866	0.000153	-0.26794	0.019684	-0.019836	-0.005188	0.02594	-0.018311	-0.061951	0.068359	-0.10361	0.11154	-0.020142	-0.087128	-0.071106	-0.000458	-0.48996	-0.010986	0.026703	0.22675	0.000916	-0.013275
54.153	-0.000763	-0.10727	0.06958	-0.014191	0.010681	0.000305	0.071869	0.000458	0.15533	-0.016327	-0.19516	-0.001068	0.097809	-0.082245	-0.096436	0.007324	-0.050659	-0.016632	0.34027	0.21759	-0.28625	0.14465	-0.08667	0.062561	-0.041504	-0.016022	-0.25345	-0.010986	-0.015106	0.27954	0.000305	-0.015869
54.154	-0.001984	-0.093079	0.061493	-0.013123	0.007324	-0.002747	0.10239	0.005035	0.091553	-0.02121	-0.090332	0.000153	0.21027	-0.048523	-0.056305	0.000763	-0.046234	0.019226	0.26672	0.26001	-0.21072	0.018616	-0.14969	0.073853	-0.011902	-0.000458	-0.018005	-0.010223	0.047913	0.13672	-0.006256	-0.013123
54.155	-0.004883	-0.1149	0.031128	-0.00824	-0.002441	-0.015717	0.11383	0.002136	0.062408	-0.017395	-0.044403	0.000458	-0.13351	0.013123	-0.007935	0.002899	-0.009766	-0.074005	-0.097504	0.13687	0.022736	-0.052948	-0.20828	-0.017853	-0.046997	-0.001373	0.093231	-0.005646	0.057983	0.15121	0.003357	-0.013428
54.156	-0.000153	-0.092926	-0.015869	-0.000305	-0.004272	-0.008698	0.20309	0.005035	-0.015869	-0.005951	-0.007172	0.006409	0.57983	0.121	0.26718	0.00412	-0.004272	-0.062103	-0.005646	0.011292	0.1915	-0.018005	-0.19134	0.019684	0.013123	-0.005646	0.15259	-0.002136	0.043488	0.22171	0.000763	-0.012512
54.157	-0.001831	-0.09079	-0.072174	0.002747	0.007629	0.051575	0.30029	-0.002441	-0.054779	-0.005798	-0.016479	0.00061	0.21698	0.12833	0.39108	-0.004578	0.015411	-0.02243	0.15884	-0.080872	-0.061188	-0.014954	-0.098419	0.12436	0.040894	-0.004883	0.12558	-0.011139	0.049744	0.12222	0	-0.011292
54.158	0.003815	-0.045013	-0.014954	-0.001831	0.008087	0.089111	0.27435	0.000153	-0.080566	-0.036774	0.14587	0.005188	-0.37888	0.12482	0.83527	0.012054	0.06424	-0.031738	0.24185	-0.09201	-0.30624	-0.036316	0.035248	0.018158	0.006561	-0.004425	-0.14679	-0.001373	0.032959	0.08667	-0.003357	-0.009918
54.159	0.008087	-0.053406	0.017242	0.014038	0.001221	0.11002	0.22049	0.015259	-0.071411	-0.080109	0.29739	0.00824	-0.078735	0.14786	0.39002	0.01297	0.11276	-0.050659	-0.003204	-0.011444	-0.43304	-0.10361	0.10208	-0.059662	0.002747	-0.003815	-0.37964	-0.002747	-0.022125	0.070648	0	-0.00473
54.16	0.00824	-0.050354	0.070953	-0.008392	-0.007172	0.11383	0.10376	0.015106	-0.052338	-0.031891	0.41977	-0.011139	-0.15762	0.15671	0.22507	-0.007477	0.11215	-0.054321	0.018463	0.045319	-0.41229	-0.11353	0.045929	-0.10376	-0.01709	-0.001221	-0.35294	-0.007324	-0.016022	0.063477	0.001831	0.00473
54.161	0.001068	-0.084076	-0.067596	-0.008698	0.004883	0.009613	-0.016937	0.012207	-0.040283	-0.035553	-0.092163	0.003357	-0.29709	0.091095	0.036774	-0.00885	0.072327	-0.022888	0.17319	0.21103	-0.066376	-0.019531	0.004883	-0.033264	0.017853	-0.002136	-0.34546	-0.002594	0.012054	0.039978	-0.000916	0.000153
54.162	0.016174	-0.065765	-0.13046	-0.005798	0.018158	-0.1648	-0.21591	0.005493	0.12451	-0.077209	-0.31097	-0.009308	0.080872	0.10513	-0.96115	-0.007935	-0.008698	-0.011444	-0.03067	0.37811	0.65735	-0.004272	-0.020905	0.095062	0.075989	0.000763	-0.17548	-0.002594	0.056305	0.03891	-0.001678	-0.00824
54.163	0.016785	-0.031586	-0.03479	-0.00946	0.018921	-0.18494	-0.25162	0.001526	0.14069	-0.071106	-0.32593	0.000305	0.068207	0.13687	-0.96268	-0.010376	-0.074615	0.033264	0.052338	0.23529	0.45563	0.029449	-0.031281	0.16327	0.12268	-0.000305	0.084076	-0.003662	0.038147	0.047913	-0.001678	-0.007629
54.164	0.005798	-0.033722	0.021973	0.001068	0.008392	-0.079193	-0.10574	-0.013733	0.077209	-0.049438	-0.24872	0.001068	0.29434	0.000763	-1.0316	-0.020294	-0.092316	-0.02121	0.052643	0.018616	0.26718	0.054016	-0.000305	0.13168	0.11261	0.000305	0.092316	-0.009003	0.014343	0.051575	-0.002441	-0.006714
54.165	-0.009308	-0.033875	0.056458	0.012512	0.009003	-0.025787	0.10452	-0.007324	0.072021	0.001678	-0.13504	0.001678	0.14862	-0.12283	-0.47623	-0.008545	-0.02594	-0.085449	-0.032501	-0.03952	0.071869	0.1326	0.1239	-0.011749	0.046387	-0.00412	0.10315	-0.000305	-0.001221	0.059509	-0.003357	-0.00824
